# xmcd
#
# Track frame offsets:
#	150
#	19937
#	37575
#	55990
#	71162
#	91070
#	109430
#	126862
#	139737
#	153650
#	173410
#	192952
#	209342
#	225600
#	242209
#
# Disc length: 3456 seconds
#
# Revision: 2
# Processed by: cddbd v1.5.2PL0 Copyright (c) Steve Scherf et al.
# Submitted via: audiograbber 1.83.01
#
DISCID=cd0d7e0f
DTITLE=Various Artist - Sound Choice Country Hits Vol. 83
DYEAR=1900
DGENRE=Country
TTITLE0=Trace Adkins - No Thinkin' Thing (This Ain't) 
TTITLE1=Reba McEntire - How Was I To Know
TTITLE2=LeAnn Rimes - Unchained Melody
TTITLE3=Terri Clark - Emotional Girl
TTITLE4=Mila Mason - Dark Horse
TTITLE5=Alabama - Sad Lookin' Moon
TTITLE6=Deana Carter - We Danced Anyway
TTITLE7=Mindy McCready - A Girl's Gotta Do (What A Girl's Gotta Do)
TTITLE8=Sawyer Brown - Six Days On The Road
TTITLE9=George Strait - One Night At A Time
TTITLE10=John Michael Montgomery - I Miss You A Little
TTITLE11=Tanya Tucker - Little Things
TTITLE12=Vince Gill - A Little More Love
TTITLE13=Kenny Chesney - When I Close My Eyes
TTITLE14=Kevin Sharp - She's Sure Taking It Well
EXTD=Update Artist Names
EXTT0=
EXTT1=
EXTT2=
EXTT3=
EXTT4=
EXTT5=
EXTT6=
EXTT7=
EXTT8=
EXTT9=
EXTT10=
EXTT11=
EXTT12=
EXTT13=
EXTT14=
PLAYORDER=
